<?xml version="1.0" encoding="UTF-8"?>
<svg xmlns="http://www.w3.org/2000/svg" xmlns:xlink="http://www.w3.org/1999/xlink" viewBox="0 0 96 96" width="96px" height="96px">
<g id="surface39639">
<path style=" stroke:none;fill-rule:nonzero;fill:rgb(36.862746%,36.078432%,69.803923%);fill-opacity:1;" d="M 48 96 C 21.492188 96 0 74.507812 0 48 C 0 21.492188 21.492188 0 48 0 C 74.507812 0 96 21.492188 96 48 C 96 74.507812 74.507812 96 48 96 Z M 48 96 "/>
<path style=" stroke:none;fill-rule:nonzero;fill:rgb(100%,100%,100%);fill-opacity:1;" d="M 48 14.074219 L 49.128906 17.554688 L 52.792969 17.554688 L 49.832031 19.707031 L 50.960938 23.1875 L 48 21.035156 L 45.039062 23.1875 L 46.167969 19.707031 L 43.207031 17.554688 L 46.871094 17.554688 Z M 48 14.074219 "/>
<path style=" stroke:none;fill-rule:nonzero;fill:rgb(100%,100%,100%);fill-opacity:1;" d="M 48 71.542969 L 49.128906 75.023438 L 52.792969 75.023438 L 49.832031 77.175781 L 50.960938 80.65625 L 48 78.503906 L 45.039062 80.65625 L 46.167969 77.175781 L 43.207031 75.023438 L 46.871094 75.023438 Z M 48 71.542969 "/>
<path style=" stroke:none;fill-rule:nonzero;fill:rgb(100%,100%,100%);fill-opacity:1;" d="M 33.179688 68.347656 L 34.308594 71.828125 L 37.96875 71.828125 L 35.007812 73.980469 L 36.140625 77.460938 L 33.179688 75.3125 L 30.21875 77.460938 L 31.347656 73.980469 L 28.386719 71.828125 L 32.046875 71.828125 Z M 33.179688 68.347656 "/>
<path style=" stroke:none;fill-rule:nonzero;fill:rgb(100%,100%,100%);fill-opacity:1;" d="M 61.925781 68.347656 L 63.054688 71.828125 L 66.714844 71.828125 L 63.753906 73.980469 L 64.886719 77.460938 L 61.925781 75.3125 L 58.964844 77.460938 L 60.09375 73.980469 L 57.132812 71.828125 L 60.792969 71.828125 Z M 61.925781 68.347656 "/>
<path style=" stroke:none;fill-rule:nonzero;fill:rgb(100%,100%,100%);fill-opacity:1;" d="M 33.179688 18.839844 L 34.308594 22.324219 L 37.96875 22.324219 L 35.007812 24.472656 L 36.140625 27.953125 L 33.179688 25.800781 L 30.21875 27.953125 L 31.347656 24.472656 L 28.386719 22.324219 L 32.046875 22.324219 Z M 33.179688 18.839844 "/>
<path style=" stroke:none;fill-rule:nonzero;fill:rgb(100%,100%,100%);fill-opacity:1;" d="M 61.925781 18.839844 L 63.054688 22.324219 L 66.714844 22.324219 L 63.753906 24.472656 L 64.886719 27.953125 L 61.925781 25.800781 L 58.964844 27.953125 L 60.09375 24.472656 L 57.132812 22.324219 L 60.792969 22.324219 Z M 61.925781 18.839844 "/>
<path style=" stroke:none;fill-rule:nonzero;fill:rgb(100%,100%,100%);fill-opacity:1;" d="M 22.449219 28.421875 L 23.578125 31.90625 L 27.238281 31.90625 L 24.277344 34.054688 L 25.410156 37.535156 L 22.449219 35.386719 L 19.488281 37.535156 L 20.617188 34.054688 L 17.65625 31.90625 L 21.316406 31.90625 Z M 22.449219 28.421875 "/>
<path style=" stroke:none;fill-rule:nonzero;fill:rgb(100%,100%,100%);fill-opacity:1;" d="M 71.957031 28.421875 L 73.085938 31.90625 L 76.746094 31.90625 L 73.785156 34.054688 L 74.917969 37.535156 L 71.957031 35.386719 L 68.996094 37.535156 L 70.125 34.054688 L 67.164062 31.90625 L 70.824219 31.90625 Z M 71.957031 28.421875 "/>
<path style=" stroke:none;fill-rule:nonzero;fill:rgb(100%,100%,100%);fill-opacity:1;" d="M 22.449219 57.171875 L 23.578125 60.648438 L 27.238281 60.648438 L 24.277344 62.804688 L 25.410156 66.28125 L 22.449219 64.132812 L 19.488281 66.28125 L 20.617188 62.804688 L 17.65625 60.648438 L 21.316406 60.648438 Z M 22.449219 57.171875 "/>
<path style=" stroke:none;fill-rule:nonzero;fill:rgb(100%,100%,100%);fill-opacity:1;" d="M 71.957031 57.171875 L 73.085938 60.648438 L 76.746094 60.648438 L 73.785156 62.804688 L 74.917969 66.28125 L 71.957031 64.132812 L 68.996094 66.28125 L 70.125 62.804688 L 67.164062 60.648438 L 70.824219 60.648438 Z M 71.957031 57.171875 "/>
<path style=" stroke:none;fill-rule:nonzero;fill:rgb(100%,100%,100%);fill-opacity:1;" d="M 19.253906 42.796875 L 20.382812 46.277344 L 24.042969 46.277344 L 21.082031 48.429688 L 22.214844 51.910156 L 19.253906 49.757812 L 16.292969 51.910156 L 17.421875 48.429688 L 14.460938 46.277344 L 18.121094 46.277344 Z M 19.253906 42.796875 "/>
<path style=" stroke:none;fill-rule:nonzero;fill:rgb(100%,100%,100%);fill-opacity:1;" d="M 76.746094 42.796875 L 77.878906 46.277344 L 81.539062 46.277344 L 78.578125 48.429688 L 79.707031 51.910156 L 76.746094 49.757812 L 73.785156 51.910156 L 74.917969 48.429688 L 71.957031 46.277344 L 75.617188 46.277344 Z M 76.746094 42.796875 "/>
<path style=" stroke:none;fill-rule:nonzero;fill:rgb(100%,100%,100%);fill-opacity:1;" d="M 39.667969 38.140625 C 39.667969 38.164062 39.660156 38.183594 39.648438 38.207031 C 39.636719 38.222656 39.613281 38.238281 39.578125 38.25 C 39.542969 38.261719 39.496094 38.273438 39.441406 38.28125 C 39.382812 38.285156 39.308594 38.289062 39.222656 38.289062 C 39.136719 38.289062 39.066406 38.285156 39.007812 38.28125 C 38.953125 38.273438 38.90625 38.261719 38.871094 38.25 C 38.839844 38.242188 38.816406 38.222656 38.800781 38.207031 C 38.789062 38.1875 38.78125 38.164062 38.78125 38.140625 L 38.78125 34.378906 L 38.773438 34.378906 L 37.4375 38.136719 C 37.425781 38.167969 37.410156 38.191406 37.390625 38.214844 C 37.367188 38.234375 37.339844 38.25 37.300781 38.261719 C 37.265625 38.273438 37.21875 38.28125 37.160156 38.285156 C 37.101562 38.289062 37.03125 38.289062 36.953125 38.289062 C 36.871094 38.289062 36.804688 38.289062 36.746094 38.28125 C 36.6875 38.277344 36.640625 38.265625 36.605469 38.253906 C 36.570312 38.242188 36.539062 38.222656 36.515625 38.207031 C 36.496094 38.1875 36.480469 38.164062 36.472656 38.136719 L 35.183594 34.382812 L 35.175781 34.382812 L 35.175781 38.140625 C 35.175781 38.164062 35.167969 38.1875 35.15625 38.207031 C 35.144531 38.226562 35.121094 38.242188 35.082031 38.253906 C 35.046875 38.265625 35 38.277344 34.945312 38.28125 C 34.890625 38.289062 34.816406 38.289062 34.730469 38.289062 C 34.640625 38.289062 34.570312 38.285156 34.515625 38.28125 C 34.457031 38.273438 34.414062 38.261719 34.378906 38.25 C 34.34375 38.242188 34.316406 38.222656 34.308594 38.207031 C 34.292969 38.1875 34.285156 38.164062 34.285156 38.140625 L 34.285156 34.027344 C 34.285156 33.90625 34.320312 33.8125 34.382812 33.746094 C 34.449219 33.683594 34.535156 33.652344 34.640625 33.652344 L 35.253906 33.652344 C 35.363281 33.652344 35.457031 33.660156 35.535156 33.675781 C 35.613281 33.695312 35.683594 33.726562 35.738281 33.765625 C 35.796875 33.808594 35.84375 33.863281 35.878906 33.929688 C 35.917969 34 35.953125 34.082031 35.980469 34.183594 L 36.980469 36.9375 L 36.992188 36.9375 L 38.027344 34.191406 C 38.058594 34.089844 38.09375 34.007812 38.128906 33.9375 C 38.164062 33.867188 38.207031 33.8125 38.257812 33.769531 C 38.308594 33.726562 38.363281 33.695312 38.429688 33.675781 C 38.496094 33.660156 38.574219 33.652344 38.664062 33.652344 L 39.296875 33.652344 C 39.359375 33.652344 39.414062 33.660156 39.460938 33.675781 C 39.507812 33.691406 39.546875 33.71875 39.574219 33.75 C 39.605469 33.78125 39.628906 33.820312 39.644531 33.867188 C 39.660156 33.914062 39.667969 33.964844 39.667969 34.027344 Z M 39.667969 38.140625 "/>
<path style=" stroke:none;fill-rule:nonzero;fill:rgb(100%,100%,100%);fill-opacity:1;" d="M 44.457031 37.917969 C 44.488281 38.003906 44.503906 38.074219 44.511719 38.121094 C 44.519531 38.171875 44.511719 38.210938 44.484375 38.234375 C 44.457031 38.261719 44.410156 38.277344 44.34375 38.28125 C 44.277344 38.289062 44.1875 38.289062 44.070312 38.289062 C 43.949219 38.289062 43.855469 38.289062 43.785156 38.285156 C 43.71875 38.28125 43.667969 38.273438 43.628906 38.261719 C 43.59375 38.25 43.570312 38.238281 43.554688 38.21875 C 43.542969 38.199219 43.53125 38.171875 43.519531 38.144531 L 43.207031 37.214844 L 41.472656 37.214844 L 41.179688 38.117188 C 41.171875 38.152344 41.160156 38.179688 41.144531 38.203125 C 41.128906 38.222656 41.105469 38.242188 41.070312 38.257812 C 41.035156 38.269531 40.984375 38.277344 40.921875 38.285156 C 40.859375 38.289062 40.777344 38.289062 40.675781 38.289062 C 40.566406 38.289062 40.480469 38.285156 40.417969 38.28125 C 40.355469 38.273438 40.3125 38.253906 40.289062 38.226562 C 40.265625 38.199219 40.257812 38.160156 40.261719 38.113281 C 40.269531 38.0625 40.289062 37.996094 40.316406 37.914062 L 41.742188 33.816406 C 41.753906 33.773438 41.773438 33.742188 41.789062 33.71875 C 41.808594 33.691406 41.839844 33.671875 41.882812 33.660156 C 41.921875 33.648438 41.980469 33.640625 42.054688 33.632812 C 42.128906 33.632812 42.226562 33.628906 42.347656 33.628906 C 42.488281 33.628906 42.597656 33.632812 42.683594 33.632812 C 42.765625 33.636719 42.832031 33.648438 42.875 33.660156 C 42.921875 33.671875 42.957031 33.695312 42.976562 33.71875 C 43 33.746094 43.015625 33.78125 43.027344 33.824219 Z M 42.339844 34.53125 L 42.335938 34.53125 L 41.683594 36.496094 L 42.992188 36.496094 Z M 42.339844 34.53125 "/>
<path style=" stroke:none;fill-rule:nonzero;fill:rgb(100%,100%,100%);fill-opacity:1;" d="M 48.941406 35.890625 C 48.941406 36.316406 48.886719 36.675781 48.777344 36.980469 C 48.664062 37.28125 48.507812 37.523438 48.300781 37.714844 C 48.09375 37.90625 47.84375 38.046875 47.542969 38.136719 C 47.246094 38.222656 46.894531 38.269531 46.484375 38.269531 L 45.382812 38.269531 C 45.304688 38.269531 45.238281 38.246094 45.183594 38.199219 C 45.132812 38.152344 45.105469 38.078125 45.105469 37.972656 L 45.105469 33.945312 C 45.105469 33.84375 45.132812 33.765625 45.183594 33.71875 C 45.238281 33.671875 45.304688 33.652344 45.382812 33.652344 L 46.566406 33.652344 C 46.980469 33.652344 47.328125 33.699219 47.613281 33.792969 C 47.902344 33.890625 48.144531 34.035156 48.339844 34.222656 C 48.535156 34.414062 48.683594 34.648438 48.789062 34.925781 C 48.890625 35.203125 48.941406 35.523438 48.941406 35.890625 Z M 47.972656 35.925781 C 47.972656 35.707031 47.945312 35.5 47.894531 35.316406 C 47.84375 35.125 47.761719 34.964844 47.648438 34.824219 C 47.535156 34.6875 47.390625 34.578125 47.210938 34.503906 C 47.035156 34.425781 46.804688 34.386719 46.515625 34.386719 L 46.039062 34.386719 L 46.039062 37.527344 L 46.527344 37.527344 C 46.785156 37.527344 47 37.496094 47.179688 37.425781 C 47.355469 37.359375 47.5 37.257812 47.621094 37.125 C 47.738281 36.992188 47.824219 36.824219 47.886719 36.625 C 47.945312 36.425781 47.972656 36.191406 47.972656 35.925781 Z M 47.972656 35.925781 "/>
<path style=" stroke:none;fill-rule:nonzero;fill:rgb(100%,100%,100%);fill-opacity:1;" d="M 52.449219 37.902344 C 52.449219 37.96875 52.449219 38.027344 52.441406 38.074219 C 52.4375 38.121094 52.429688 38.15625 52.414062 38.1875 C 52.40625 38.214844 52.386719 38.234375 52.371094 38.25 C 52.355469 38.261719 52.335938 38.265625 52.3125 38.265625 L 49.992188 38.265625 C 49.914062 38.265625 49.847656 38.242188 49.792969 38.199219 C 49.742188 38.152344 49.714844 38.074219 49.714844 37.972656 L 49.714844 33.945312 C 49.714844 33.84375 49.742188 33.765625 49.792969 33.71875 C 49.847656 33.671875 49.914062 33.652344 49.992188 33.652344 L 52.296875 33.652344 C 52.320312 33.652344 52.335938 33.65625 52.355469 33.667969 C 52.371094 33.679688 52.386719 33.703125 52.398438 33.730469 C 52.410156 33.761719 52.417969 33.796875 52.425781 33.84375 C 52.429688 33.890625 52.433594 33.949219 52.433594 34.019531 C 52.433594 34.089844 52.429688 34.144531 52.425781 34.191406 C 52.417969 34.238281 52.410156 34.273438 52.398438 34.304688 C 52.386719 34.332031 52.371094 34.351562 52.355469 34.367188 C 52.335938 34.378906 52.320312 34.386719 52.296875 34.386719 L 50.648438 34.386719 L 50.648438 35.511719 L 52.046875 35.511719 C 52.066406 35.511719 52.085938 35.519531 52.105469 35.53125 C 52.121094 35.542969 52.136719 35.566406 52.148438 35.59375 C 52.160156 35.621094 52.167969 35.65625 52.175781 35.703125 C 52.183594 35.75 52.1875 35.804688 52.1875 35.871094 C 52.1875 35.941406 52.183594 36 52.175781 36.042969 C 52.171875 36.085938 52.160156 36.125 52.148438 36.152344 C 52.136719 36.179688 52.121094 36.199219 52.105469 36.210938 C 52.085938 36.222656 52.066406 36.226562 52.046875 36.226562 L 50.648438 36.226562 L 50.648438 37.53125 L 52.3125 37.53125 C 52.332031 37.53125 52.351562 37.539062 52.371094 37.550781 C 52.386719 37.5625 52.40625 37.582031 52.414062 37.613281 C 52.429688 37.640625 52.4375 37.679688 52.441406 37.726562 C 52.449219 37.773438 52.449219 37.832031 52.449219 37.902344 Z M 52.449219 37.902344 "/>
<path style=" stroke:none;fill-rule:nonzero;fill:rgb(100%,100%,100%);fill-opacity:1;" d="M 55.875 38.140625 C 55.875 38.164062 55.867188 38.183594 55.847656 38.207031 C 55.832031 38.222656 55.808594 38.238281 55.773438 38.25 C 55.738281 38.261719 55.691406 38.273438 55.628906 38.28125 C 55.570312 38.285156 55.496094 38.289062 55.402344 38.289062 C 55.3125 38.289062 55.234375 38.285156 55.175781 38.28125 C 55.113281 38.273438 55.066406 38.261719 55.03125 38.25 C 54.996094 38.242188 54.96875 38.222656 54.957031 38.207031 C 54.9375 38.1875 54.929688 38.164062 54.929688 38.140625 L 54.929688 33.777344 C 54.929688 33.753906 54.9375 33.734375 54.957031 33.710938 C 54.972656 33.695312 54.996094 33.679688 55.035156 33.667969 C 55.070312 33.652344 55.117188 33.644531 55.175781 33.636719 C 55.234375 33.632812 55.3125 33.625 55.402344 33.625 C 55.496094 33.625 55.570312 33.628906 55.628906 33.636719 C 55.691406 33.644531 55.738281 33.65625 55.773438 33.667969 C 55.808594 33.675781 55.832031 33.695312 55.847656 33.710938 C 55.867188 33.730469 55.875 33.753906 55.875 33.777344 Z M 55.875 38.140625 "/>
<path style=" stroke:none;fill-rule:nonzero;fill:rgb(100%,100%,100%);fill-opacity:1;" d="M 60.6875 37.941406 C 60.6875 37.996094 60.679688 38.042969 60.660156 38.085938 C 60.640625 38.128906 60.613281 38.164062 60.582031 38.195312 C 60.550781 38.222656 60.511719 38.242188 60.46875 38.257812 C 60.425781 38.269531 60.378906 38.277344 60.335938 38.277344 L 59.9375 38.277344 C 59.851562 38.277344 59.78125 38.265625 59.71875 38.25 C 59.660156 38.234375 59.605469 38.203125 59.554688 38.160156 C 59.5 38.117188 59.453125 38.058594 59.40625 37.980469 C 59.355469 37.90625 59.304688 37.808594 59.242188 37.6875 L 58.09375 35.53125 C 58.027344 35.402344 57.960938 35.261719 57.890625 35.113281 C 57.820312 34.964844 57.757812 34.820312 57.707031 34.683594 L 57.699219 34.683594 C 57.707031 34.851562 57.714844 35.023438 57.71875 35.195312 C 57.722656 35.363281 57.726562 35.539062 57.726562 35.722656 L 57.726562 38.136719 C 57.726562 38.160156 57.71875 38.183594 57.707031 38.203125 C 57.695312 38.222656 57.671875 38.238281 57.640625 38.25 C 57.609375 38.261719 57.566406 38.273438 57.507812 38.28125 C 57.453125 38.285156 57.382812 38.289062 57.296875 38.289062 C 57.214844 38.289062 57.144531 38.285156 57.089844 38.28125 C 57.035156 38.273438 56.992188 38.261719 56.960938 38.25 C 56.929688 38.238281 56.910156 38.21875 56.898438 38.203125 C 56.886719 38.183594 56.878906 38.160156 56.878906 38.136719 L 56.878906 33.984375 C 56.878906 33.875 56.914062 33.789062 56.980469 33.734375 C 57.042969 33.675781 57.125 33.652344 57.21875 33.652344 L 57.722656 33.652344 C 57.8125 33.652344 57.890625 33.660156 57.949219 33.675781 C 58.011719 33.691406 58.066406 33.714844 58.117188 33.75 C 58.167969 33.785156 58.214844 33.835938 58.253906 33.898438 C 58.296875 33.964844 58.339844 34.039062 58.386719 34.132812 L 59.285156 35.820312 C 59.339844 35.921875 59.390625 36.023438 59.441406 36.121094 C 59.492188 36.222656 59.542969 36.320312 59.589844 36.417969 C 59.636719 36.519531 59.683594 36.617188 59.730469 36.710938 C 59.773438 36.804688 59.816406 36.902344 59.859375 36.996094 L 59.863281 36.996094 C 59.859375 36.832031 59.851562 36.65625 59.847656 36.476562 C 59.84375 36.296875 59.84375 36.121094 59.84375 35.957031 L 59.84375 33.789062 C 59.84375 33.765625 59.851562 33.746094 59.863281 33.726562 C 59.878906 33.707031 59.902344 33.691406 59.9375 33.675781 C 59.96875 33.664062 60.011719 33.652344 60.070312 33.648438 C 60.125 33.640625 60.191406 33.640625 60.28125 33.640625 C 60.359375 33.640625 60.429688 33.640625 60.480469 33.648438 C 60.535156 33.652344 60.578125 33.664062 60.609375 33.675781 C 60.640625 33.691406 60.660156 33.710938 60.671875 33.726562 C 60.683594 33.746094 60.691406 33.765625 60.691406 33.789062 L 60.691406 37.941406 Z M 60.6875 37.941406 "/>
<path style=" stroke:none;fill-rule:nonzero;fill:rgb(100%,100%,100%);fill-opacity:1;" d="M 43.921875 60.292969 C 43.921875 60.59375 43.910156 60.84375 43.882812 61.042969 C 43.859375 61.246094 43.820312 61.410156 43.769531 61.53125 C 43.714844 61.65625 43.652344 61.746094 43.574219 61.804688 C 43.496094 61.863281 43.410156 61.890625 43.320312 61.890625 L 33.238281 61.890625 C 32.898438 61.890625 32.609375 61.789062 32.378906 61.585938 C 32.144531 61.382812 32.03125 61.058594 32.03125 60.601562 L 32.03125 43.109375 C 32.03125 42.65625 32.144531 42.328125 32.378906 42.125 C 32.613281 41.925781 32.898438 41.824219 33.238281 41.824219 L 43.257812 41.824219 C 43.347656 41.824219 43.429688 41.851562 43.503906 41.902344 C 43.578125 41.953125 43.636719 42.042969 43.691406 42.171875 C 43.742188 42.300781 43.78125 42.46875 43.804688 42.667969 C 43.832031 42.871094 43.84375 43.125 43.84375 43.433594 C 43.84375 43.722656 43.832031 43.96875 43.804688 44.171875 C 43.777344 44.371094 43.742188 44.535156 43.691406 44.660156 C 43.636719 44.785156 43.578125 44.875 43.503906 44.933594 C 43.429688 44.988281 43.347656 45.015625 43.257812 45.015625 L 36.09375 45.015625 L 36.09375 49.917969 L 42.15625 49.917969 C 42.25 49.917969 42.332031 49.945312 42.410156 50.003906 C 42.488281 50.058594 42.554688 50.144531 42.605469 50.265625 C 42.65625 50.382812 42.695312 50.546875 42.71875 50.746094 C 42.746094 50.949219 42.757812 51.195312 42.757812 51.484375 C 42.757812 51.78125 42.746094 52.03125 42.71875 52.226562 C 42.695312 52.421875 42.65625 52.582031 42.605469 52.699219 C 42.554688 52.816406 42.488281 52.902344 42.410156 52.957031 C 42.332031 53.007812 42.246094 53.03125 42.15625 53.03125 L 36.09375 53.03125 L 36.09375 58.691406 L 43.316406 58.691406 C 43.410156 58.691406 43.496094 58.71875 43.574219 58.777344 C 43.652344 58.835938 43.714844 58.921875 43.769531 59.046875 C 43.820312 59.171875 43.859375 59.335938 43.882812 59.535156 C 43.910156 59.742188 43.921875 59.992188 43.921875 60.292969 Z M 43.921875 60.292969 "/>
<path style=" stroke:none;fill-rule:nonzero;fill:rgb(100%,100%,100%);fill-opacity:1;" d="M 63.898438 54.414062 C 63.898438 55.644531 63.714844 56.746094 63.355469 57.71875 C 62.988281 58.6875 62.457031 59.511719 61.753906 60.183594 C 61.054688 60.855469 60.183594 61.367188 59.152344 61.71875 C 58.117188 62.070312 56.929688 62.246094 55.585938 62.246094 C 54.324219 62.246094 53.191406 62.085938 52.1875 61.773438 C 51.1875 61.457031 50.339844 60.980469 49.644531 60.339844 C 48.953125 59.699219 48.421875 58.898438 48.054688 57.941406 C 47.691406 56.988281 47.503906 55.867188 47.503906 54.585938 L 47.503906 42.382812 C 47.503906 42.277344 47.535156 42.183594 47.597656 42.101562 C 47.660156 42.019531 47.773438 41.953125 47.929688 41.902344 C 48.09375 41.851562 48.300781 41.808594 48.5625 41.777344 C 48.820312 41.746094 49.148438 41.730469 49.550781 41.730469 C 49.945312 41.730469 50.269531 41.746094 50.53125 41.777344 C 50.785156 41.808594 50.996094 41.847656 51.152344 41.902344 C 51.304688 41.953125 51.417969 42.019531 51.484375 42.101562 C 51.550781 42.183594 51.582031 42.277344 51.582031 42.382812 L 51.582031 54.226562 C 51.582031 55.023438 51.683594 55.714844 51.878906 56.296875 C 52.074219 56.882812 52.355469 57.363281 52.722656 57.75 C 53.089844 58.128906 53.53125 58.417969 54.042969 58.609375 C 54.550781 58.800781 55.125 58.894531 55.753906 58.894531 C 56.394531 58.894531 56.96875 58.796875 57.476562 58.601562 C 57.980469 58.40625 58.410156 58.117188 58.761719 57.738281 C 59.117188 57.363281 59.386719 56.898438 59.578125 56.34375 C 59.769531 55.792969 59.863281 55.164062 59.863281 54.460938 L 59.863281 42.378906 C 59.863281 42.277344 59.894531 42.183594 59.957031 42.101562 C 60.019531 42.015625 60.128906 41.949219 60.285156 41.898438 C 60.4375 41.847656 60.648438 41.804688 60.914062 41.773438 C 61.175781 41.746094 61.503906 41.726562 61.898438 41.726562 C 62.289062 41.726562 62.613281 41.746094 62.863281 41.773438 C 63.117188 41.804688 63.324219 41.847656 63.476562 41.898438 C 63.636719 41.953125 63.742188 42.019531 63.804688 42.101562 C 63.867188 42.183594 63.898438 42.277344 63.898438 42.378906 Z M 63.898438 54.414062 "/>
</g>
</svg>
